<!DOCTYPE svg PUBLIC "-//W3C//DTD SVG 20010904//EN" "http://www.w3.org/TR/2001/REC-SVG-20010904/DTD/svg10.dtd">
<svg version="1.0" xmlns="http://www.w3.org/2000/svg" width="164px" height="164px" viewBox="0 0 1640 1640" preserveAspectRatio="xMidYMid meet">
<g id="layer101" fill="#02a744" stroke="none">
 <path d="M0 820 l0 -820 820 0 820 0 0 820 0 820 -820 0 -820 0 0 -820z"/>
 </g>
<g id="layer102" fill="#0659a9" stroke="none">
 <path d="M0 690 l0 -690 820 0 820 0 0 690 0 690 -820 0 -820 0 0 -690z"/>
 </g>
<g id="layer103" fill="#a2d0ef" stroke="none">
 <path d="M0 1290 l0 -90 100 0 101 0 67 -51 c214 -162 458 -208 697 -132 68 21 239 107 297 149 39 28 57 34 98 34 l50 0 0 -540 0 -540 100 0 100 0 0 240 c0 207 2 240 15 240 11 0 15 11 15 40 0 29 -4 40 -15 40 -13 0 -15 36 -15 260 0 224 2 260 15 260 12 0 15 17 15 90 l0 90 -820 0 -820 0 0 -90z"/>
 </g>
<g id="layer104" fill="#fefefe" stroke="none">
 <path d="M0 1290 l0 -90 104 0 105 0 67 -50 c85 -65 183 -114 281 -141 106 -29 304 -24 403 11 85 30 233 104 293 146 40 29 56 34 102 34 l55 0 0 -540 0 -540 100 0 100 0 0 245 c0 211 2 245 15 245 10 0 15 10 15 30 0 20 -5 30 -15 30 -13 0 -15 36 -15 265 0 229 2 265 15 265 12 0 15 17 15 90 l0 90 -820 0 -820 0 0 -90z"/>
 </g>

</svg>